<?xml version="1.0" encoding="UTF-8" standalone="no"?>
<!-- Created with Inkscape (http://www.inkscape.org/) -->

<svg
   xmlns:dc="http://purl.org/dc/elements/1.1/"
   xmlns:cc="http://creativecommons.org/ns#"
   xmlns:rdf="http://www.w3.org/1999/02/22-rdf-syntax-ns#"
   xmlns:svg="http://www.w3.org/2000/svg"
   xmlns="http://www.w3.org/2000/svg"
   xmlns:sodipodi="http://sodipodi.sourceforge.net/DTD/sodipodi-0.dtd"
   xmlns:inkscape="http://www.inkscape.org/namespaces/inkscape"
   id="svg2"
   version="1.1"
   inkscape:version="0.48.4 r9939"
   width="1000"
   height="750"
   xml:space="preserve"
   sodipodi:docname="logo-arkos-white-round.svg"><metadata
     id="metadata8"><rdf:RDF><cc:Work
         rdf:about=""><dc:format>image/svg+xml</dc:format><dc:type
           rdf:resource="http://purl.org/dc/dcmitype/StillImage" /><dc:title></dc:title></cc:Work></rdf:RDF></metadata><defs
     id="defs6"><clipPath
       clipPathUnits="userSpaceOnUse"
       id="clipPath16"><path
         d="M 0,600 800,600 800,0 0,0 0,600 z"
         id="path18" /></clipPath></defs><sodipodi:namedview
     pagecolor="#ffffff"
     bordercolor="#666666"
     borderopacity="1"
     objecttolerance="10"
     gridtolerance="10"
     guidetolerance="10"
     inkscape:pageopacity="0"
     inkscape:pageshadow="2"
     inkscape:window-width="1366"
     inkscape:window-height="715"
     id="namedview4"
     showgrid="false"
     inkscape:zoom="0.62933333"
     inkscape:cx="667.11337"
     inkscape:cy="422.31229"
     inkscape:window-x="0"
     inkscape:window-y="0"
     inkscape:window-maximized="1"
     inkscape:current-layer="g10" /><g
     id="g10"
     inkscape:groupmode="layer"
     inkscape:label="logo-ark"
     transform="matrix(1.25,0,0,-1.25,0,750)"><g
       id="g2997"
       transform="matrix(2.794843,0,0,2.794843,-1331.6917,-551.52019)"><path
         inkscape:connector-curvature="0"
         id="path28"
         style="fill:none;stroke:#ffffff;stroke-width:13;stroke-linecap:butt;stroke-linejoin:miter;stroke-miterlimit:4;stroke-opacity:1;stroke-dasharray:none"
         d="m 713.318,304.675 c 0,-51.758 -41.957,-93.716 -93.716,-93.716 -51.758,0 -93.715,41.958 -93.715,93.716 0,51.758 41.957,93.717 93.715,93.717 51.759,0 93.716,-41.959 93.716,-93.717 z" /><path
         inkscape:connector-curvature="0"
         id="path30"
         style="fill:#ffffff;fill-opacity:1;fill-rule:nonzero;stroke:none"
         d="m 653.691,292.307 -33.698,-19.908 -34.089,19.23 -0.391,39.138 33.698,19.907 34.09,-19.23 0.39,-39.137 z" /><path
         inkscape:connector-curvature="0"
         id="path32"
         style="fill:none;stroke:#ffffff;stroke-width:13;stroke-linecap:butt;stroke-linejoin:miter;stroke-miterlimit:4;stroke-opacity:1;stroke-dasharray:none"
         d="m 653.691,292.307 -33.698,-19.908 -34.089,19.23 -0.391,39.138 33.698,19.907 34.09,-19.23 0.39,-39.137 z" /><path
         inkscape:connector-curvature="0"
         id="path34"
         style="fill:#ffffff;fill-opacity:1;fill-rule:nonzero;stroke:none"
         d="m 692.266,304.675 c 0,-40.13 -32.534,-72.661 -72.664,-72.661 -40.129,0 -72.663,32.531 -72.663,72.661" /><path
         inkscape:connector-curvature="0"
         id="path36"
         style="fill:none;stroke:#ffffff;stroke-width:13;stroke-linecap:butt;stroke-linejoin:miter;stroke-miterlimit:4;stroke-opacity:1;stroke-dasharray:none"
         d="m 692.266,304.675 c 0,-40.13 -32.534,-72.661 -72.664,-72.661 -40.129,0 -72.663,32.531 -72.663,72.661" /></g></g></svg>